# xmcd
#
# Track frame offsets:
#       150
#       21182
#       28671
#       49819
#       66283
#       76786
#       100785
#       126992
#       156987
#       169050
#
# Disc length: 2928 seconds
#
# Revision: 1
# Processed by: cddbd v1.4PL0 Copyright (c) Steve Scherf et al.
# Submitted via: MusiCat 1.1
#
DISCID=7d0b6e0a
DTITLE=Corrie van Bingsbergen - Kado Uit De Hel! [CD2]
DYEAR=1900
DGENRE=
TTITLE0=This Suits You II
TTITLE1=Shorts
TTITLE2=Ierse Zeemannen
TTITLE3=De Oudste Steen
TTITLE4=In De War (Part I)
TTITLE5=In De War (Part II)
TTITLE6=Vriezen Of Dooien
TTITLE7=Space Is The Place
TTITLE8=De Weg Naar Zoeken (II)
TTITLE9=Zuigeling
EXTD=\n\n
EXTT0=
EXTT1=
EXTT2=
EXTT3=
EXTT4=
EXTT5=
EXTT6=
EXTT7=
EXTT8=
EXTT9=
PLAYORDER=
